<?xml version="1.0" encoding="UTF-8"?>
<svg id="Camada_2" data-name="Camada 2" xmlns="http://www.w3.org/2000/svg" viewBox="0 0 1000 410">
  <defs>
    <style>
      .cls-1 {
        fill: #fff;
      }
    </style>
  </defs>
  <g id="Camada_1-2" data-name="Camada 1">
    <g>
      <path class="cls-1" d="M451.08,310.94c15.07,0,26.91-10.16,26.91-18.3V43.95h111.96v248.69c0,7.54,10.77,18.3,26.91,18.3,15.07,0,25.84-10.77,25.84-18.3V43.95h115.19v256.03c0,38.86-23.68,92.78-111.96,107.85-50.43,8.61-91.51-16.15-111.96-34.45-19.38,18.3-61.49,42.02-111.96,35.53-75.36-9.69-110.89-67.37-110.89-105.66V43.95h114.12v248.69c0,7.92,10.77,18.3,25.84,18.3Z"/>
      <polygon class="cls-1" points="106.58 43.95 106.58 204.36 162.56 204.36 162.56 43.95 269.14 43.95 269.14 402.45 162.56 402.45 162.56 295.87 106.58 295.87 106.58 402.45 0 402.45 0 43.95 106.58 43.95"/>
      <polygon class="cls-1" points="914.5 0 914.5 402.45 799.98 402.45 799.98 44.17 914.5 0"/>
      <rect class="cls-1" x="954" y="355" width="46" height="47"/>
    </g>
  </g>
</svg>